<svg xmlns="http://www.w3.org/2000/svg" xmlns:xlink="http://www.w3.org/1999/xlink" width="211.329" height="211.329" viewBox="0 0 211.329 211.329">
  <defs>
    <clipPath id="clip-path">
      <circle id="Elipse_13" data-name="Elipse 13" cx="99" cy="99" r="99" transform="translate(2617 777)" fill="#fff"/>
    </clipPath>
  </defs>
  <g id="Grupo_de_máscara_8" data-name="Grupo de máscara 8" transform="matrix(0.07, -0.998, 0.998, 0.07, -957.66, 2753.942)" clip-path="url(#clip-path)">
    <g id="Grupo_260" data-name="Grupo 260" transform="translate(2299.487 768.676)">
      <line id="Linha_154" data-name="Linha 154" x2="208" y2="208" transform="translate(610.513 0.324)" fill="none" stroke="#e0a946" stroke-width="5"/>
      <line id="Linha_155" data-name="Linha 155" x2="208" y2="208" transform="translate(317.513 0.324)" fill="none" stroke="#e0a946" stroke-width="5"/>
      <line id="Linha_156" data-name="Linha 156" x2="208" y2="208" transform="translate(341.513 0.324)" fill="none" stroke="#e0a946" stroke-width="5"/>
      <line id="Linha_157" data-name="Linha 157" x2="208" y2="208" transform="translate(170.513 0.324)" fill="none" stroke="#e0a946" stroke-width="5"/>
      <line id="Linha_158" data-name="Linha 158" x2="208" y2="208" transform="translate(24.513 0.324)" fill="none" stroke="#e0a946" stroke-width="5"/>
      <line id="Linha_159" data-name="Linha 159" x2="208" y2="208" transform="translate(635.513 0.324)" fill="none" stroke="#e0a946" stroke-width="5"/>
      <line id="Linha_160" data-name="Linha 160" x2="208" y2="208" transform="translate(366.513 0.324)" fill="none" stroke="#e0a946" stroke-width="5"/>
      <line id="Linha_161" data-name="Linha 161" x2="208" y2="208" transform="translate(390.513 0.324)" fill="none" stroke="#e0a946" stroke-width="5"/>
      <line id="Linha_162" data-name="Linha 162" x2="208" y2="208" transform="translate(195.513 0.324)" fill="none" stroke="#e0a946" stroke-width="5"/>
      <line id="Linha_163" data-name="Linha 163" x2="208" y2="208" transform="translate(48.513 0.324)" fill="none" stroke="#e0a946" stroke-width="5"/>
      <line id="Linha_164" data-name="Linha 164" x2="208" y2="208" transform="translate(659.513 0.324)" fill="none" stroke="#e0a946" stroke-width="5"/>
      <line id="Linha_165" data-name="Linha 165" x2="208" y2="208" transform="translate(415.513 0.324)" fill="none" stroke="#e0a946" stroke-width="5"/>
      <line id="Linha_166" data-name="Linha 166" x2="208" y2="208" transform="translate(439.513 0.324)" fill="none" stroke="#e0a946" stroke-width="5"/>
      <line id="Linha_167" data-name="Linha 167" x2="208" y2="208" transform="translate(219.513 0.324)" fill="none" stroke="#e0a946" stroke-width="5"/>
      <line id="Linha_168" data-name="Linha 168" x2="208" y2="208" transform="translate(73.513 0.324)" fill="none" stroke="#e0a946" stroke-width="5"/>
      <line id="Linha_169" data-name="Linha 169" x2="208" y2="208" transform="translate(683.513 0.324)" fill="none" stroke="#e0a946" stroke-width="5"/>
      <line id="Linha_170" data-name="Linha 170" x2="208" y2="208" transform="translate(463.513 0.324)" fill="none" stroke="#e0a946" stroke-width="5"/>
      <line id="Linha_171" data-name="Linha 171" x2="208" y2="208" transform="translate(488.513 0.324)" fill="none" stroke="#e0a946" stroke-width="5"/>
      <line id="Linha_172" data-name="Linha 172" x2="208" y2="208" transform="translate(243.513 0.324)" fill="none" stroke="#e0a946" stroke-width="5"/>
      <line id="Linha_173" data-name="Linha 173" x2="208" y2="208" transform="translate(97.513 0.324)" fill="none" stroke="#e0a946" stroke-width="5"/>
      <line id="Linha_174" data-name="Linha 174" x2="208" y2="208" transform="translate(708.513 0.324)" fill="none" stroke="#e0a946" stroke-width="5"/>
      <line id="Linha_175" data-name="Linha 175" x2="208" y2="208" transform="translate(512.513 0.324)" fill="none" stroke="#e0a946" stroke-width="5"/>
      <line id="Linha_176" data-name="Linha 176" x2="209" y2="208" transform="translate(536.513 0.324)" fill="none" stroke="#e0a946" stroke-width="5"/>
      <line id="Linha_177" data-name="Linha 177" x2="208" y2="208" transform="translate(268.513 0.324)" fill="none" stroke="#e0a946" stroke-width="5"/>
      <line id="Linha_178" data-name="Linha 178" x2="208" y2="208" transform="translate(121.513 0.324)" fill="none" stroke="#e0a946" stroke-width="5"/>
      <line id="Linha_179" data-name="Linha 179" x2="209" y2="208" transform="translate(-0.487 0.324)" fill="none" stroke="#e0a946" stroke-width="5"/>
      <line id="Linha_180" data-name="Linha 180" x2="208" y2="208" transform="translate(561.513 0.324)" fill="none" stroke="#e0a946" stroke-width="5"/>
      <line id="Linha_181" data-name="Linha 181" x2="208" y2="208" transform="translate(586.513 0.324)" fill="none" stroke="#e0a946" stroke-width="5"/>
      <line id="Linha_182" data-name="Linha 182" x2="208" y2="208" transform="translate(293.513 0.324)" fill="none" stroke="#e0a946" stroke-width="5"/>
      <line id="Linha_183" data-name="Linha 183" x2="208" y2="208" transform="translate(146.513 0.324)" fill="none" stroke="#e0a946" stroke-width="5"/>
    </g>
  </g>
</svg>
