<?xml version="1.0" encoding="UTF-8"?><svg id="Camada_2" xmlns="http://www.w3.org/2000/svg" xmlns:xlink="http://www.w3.org/1999/xlink" viewBox="0 0 43.8 43.5"><defs><style>.cls-1{fill:#fff;}.cls-2{fill:url(#Gradiente_sem_nome_42);}.cls-3{fill:none;stroke:#1e8bb0;stroke-miterlimit:10;stroke-width:2px;}</style><linearGradient id="Gradiente_sem_nome_42" x1="6119.34" y1="5990.58" x2="6118.14" y2="5990.53" gradientTransform="translate(-250836.97 245635.51) scale(41 -41)" gradientUnits="userSpaceOnUse"><stop offset="0" stop-color="#0b3b4b"/><stop offset="1" stop-color="#50d7e2"/></linearGradient></defs><g id="Camada_1-2"><g id="Grupo_266"><g id="Grupo_89-5"><circle id="Elipse_1-6" class="cls-2" cx="23.3" cy="23" r="20.5"/></g><path id="Retângulo_117-2" class="cls-1" d="m12.8,15.5h21c.83,0,1.5.67,1.5,1.5h0c0,.83-.67,1.5-1.5,1.5H12.8c-.83,0-1.5-.67-1.5-1.5h0c0-.83.67-1.5,1.5-1.5Z"/><path id="Retângulo_118-2" class="cls-1" d="m12.8,21.5h21c.83,0,1.5.67,1.5,1.5h0c0,.83-.67,1.5-1.5,1.5H12.8c-.83,0-1.5-.67-1.5-1.5h0c0-.83.67-1.5,1.5-1.5Z"/><path id="Retângulo_119-2" class="cls-1" d="m12.8,27.5h21c.83,0,1.5.67,1.5,1.5h0c0,.83-.67,1.5-1.5,1.5H12.8c-.83,0-1.5-.67-1.5-1.5h0c0-.83.67-1.5,1.5-1.5Z"/><g id="Grupo_89-4"><circle id="Elipse_1-5" class="cls-3" cx="21.5" cy="21.5" r="20.5"/></g></g></g></svg>