<?xml version="1.0" encoding="UTF-8"?><svg id="Camada_2" xmlns="http://www.w3.org/2000/svg" xmlns:xlink="http://www.w3.org/1999/xlink" viewBox="0 0 85 85"><defs><style>.cls-1{fill:#fff;}.cls-2{fill:url(#Gradiente_sem_nome_36);}.cls-3{fill:url(#Gradiente_sem_nome_36-2);}</style><linearGradient id="Gradiente_sem_nome_36" x1="0" y1="42.5" x2="85" y2="42.5" gradientUnits="userSpaceOnUse"><stop offset="0" stop-color="#0c486d"/><stop offset="1" stop-color="#80c7b6"/></linearGradient><linearGradient id="Gradiente_sem_nome_36-2" x1="15.44" y1="42.52" x2="69.75" y2="42.52" xlink:href="#Gradiente_sem_nome_36"/></defs><g id="Camada_1-2"><g id="Elipse_21"><circle class="cls-1" cx="42.5" cy="42.5" r="42.5"/><path class="cls-2" d="m42.5,3c21.78,0,39.5,17.72,39.5,39.5s-17.72,39.5-39.5,39.5S3,64.28,3,42.5,20.72,3,42.5,3m0-3C19.03,0,0,19.03,0,42.5s19.03,42.5,42.5,42.5,42.5-19.03,42.5-42.5S65.97,0,42.5,0h0Z"/></g><path id="Subtração_61" class="cls-3" d="m35.47,39.37c1.29-5.45-2.08-10.92-7.54-12.22-5.45-1.29-10.92,2.08-12.22,7.54-1.29,5.45,2.08,10.92,7.54,12.22s10.92-2.08,12.22-7.54Zm10.85-6.06c1.29-5.45-2.08-10.92-7.54-12.22-5.45-1.29-10.92,2.08-12.22,7.54-1.29,5.45,2.08,10.92,7.54,12.22,5.45,1.29,10.92-2.08,12.22-7.54Zm14.66,1.67c1.29-5.45-2.08-10.92-7.54-12.22-5.45-1.29-10.92,2.08-12.22,7.54-1.29,5.45,2.08,10.92,7.54,12.22,5.45,1.29,10.92-2.08,12.22-7.54Zm-2.34,9.88c1.29-5.45-2.08-10.92-7.54-12.22-5.45-1.29-10.92,2.08-12.22,7.54-1.29,5.45,2.08,10.92,7.54,12.22s10.92-2.08,12.22-7.54Zm-13.4,2.94c1.29-5.45-2.08-10.92-7.54-12.22-5.45-1.29-10.92,2.08-12.22,7.54-1.29,5.45,2.08,10.92,7.54,12.22,5.45,1.29,10.92-2.08,12.22-7.54Zm24.25-4.69c1.29-5.45-2.08-10.92-7.54-12.22-5.45-1.29-10.92,2.08-12.22,7.54s2.08,10.92,7.54,12.22c5.45,1.29,10.92-2.08,12.22-7.54Zm-22.52,17.18c0-1.62-1.53-2.94-3.42-2.94s-3.42,1.31-3.42,2.94,1.53,2.94,3.42,2.94,3.42-1.31,3.42-2.94Zm7.34,1.97c0-1.09-1-1.97-2.24-1.97s-2.24.88-2.24,1.97,1,1.97,2.24,1.97,2.24-.88,2.24-1.97Z"/></g></svg>