<?xml version="1.0" encoding="UTF-8"?><svg id="Camada_2" xmlns="http://www.w3.org/2000/svg" xmlns:xlink="http://www.w3.org/1999/xlink" viewBox="0 0 87.69 87.31"><defs><style>.cls-1{fill:#fff;}.cls-2{fill:url(#Nova_amostra_de_gradiente_1);}.cls-3{fill:none;stroke:#1e8bb0;}</style><linearGradient id="Nova_amostra_de_gradiente_1" x1="1347.9" y1="6298.06" x2="1347.13" y2="6297.78" gradientTransform="translate(-168379.07 787278.72) scale(125 -125)" gradientUnits="userSpaceOnUse"><stop offset=".22" stop-color="#0b3b4b"/><stop offset="1" stop-color="#50d7e2"/></linearGradient></defs><g id="Camada_1-2"><circle id="Elipse_21" class="cls-2" cx="45.19" cy="44.81" r="42.5"/><path class="cls-1" d="m49.34,30.63c-.55-.89-1.3-1.53-2.14-1.95v-7.38l8.25-4.81-9.5-4.49v.02c-.48-.27-1.04-.39-1.66-.26-1.14.25-1.91,1.34-1.91,2.51v14.48c-.8.43-1.51,1.07-2.03,1.94l-21.52,31.66c-.7,1.04.04,2.44,1.29,2.44h49.38c1.25,0,1.99-1.4,1.29-2.44l-21.45-31.74Zm4.68,13.29c-.57.46-1.4.42-1.93-.1l-2.16-2.15c-.56-.56-1.47-.56-2.04,0l-1.95,1.95c-.56.56-1.47.56-2.04,0l-1.93-1.93c-.56-.56-1.47-.56-2.04,0l-2.09,2.08c-.53.53-1.39.56-1.96.07-.53-.45-.66-1.22-.3-1.82l6.14-10.49c.25-.42.56-.77.93-1.05.41.76,1.2,1.28,2.12,1.28s1.75-.55,2.15-1.34c.4.28.76.62,1.04,1.06l6.46,10.49c.38.62.24,1.42-.32,1.88l-.09.07Z"/><circle class="cls-3" cx="42.81" cy="42.81" r="42.31"/></g></svg>