<?xml version="1.0" encoding="UTF-8"?><svg id="Camada_2" xmlns="http://www.w3.org/2000/svg" xmlns:xlink="http://www.w3.org/1999/xlink" viewBox="0 0 85 85"><defs><style>.cls-1{fill:url(#Gradiente_sem_nome_6);}.cls-2{fill:#fff;}.cls-3{fill:url(#Gradiente_sem_nome_36);}.cls-4{fill:url(#Gradiente_sem_nome_36-2);}</style><linearGradient id="Gradiente_sem_nome_36" x1="0" y1="42.5" x2="85" y2="42.5" gradientUnits="userSpaceOnUse"><stop offset="0" stop-color="#0c486d"/><stop offset="1" stop-color="#80c7b6"/></linearGradient><linearGradient id="Gradiente_sem_nome_36-2" x1="26.38" y1="34.36" x2="60.62" y2="34.64" xlink:href="#Gradiente_sem_nome_36"/><linearGradient id="Gradiente_sem_nome_6" x1="37.35" y1="62.27" x2="47.35" y2="62.35" gradientUnits="userSpaceOnUse"><stop offset=".08" stop-color="#0b3b4b"/><stop offset="1" stop-color="#50d7e2"/></linearGradient></defs><g id="Camada_1-2"><g id="Elipse_21"><circle class="cls-2" cx="42.5" cy="42.5" r="42.5"/><path class="cls-3" d="m42.5,3c21.78,0,39.5,17.72,39.5,39.5s-17.72,39.5-39.5,39.5S3,64.28,3,42.5,20.72,3,42.5,3M42.5,0C19.03,0,0,19.03,0,42.5s19.03,42.5,42.5,42.5,42.5-19.03,42.5-42.5S65.97,0,42.5,0h0Z"/></g><path class="cls-4" d="m39.1,52.71c-1.08,0-1.95-.89-1.92-1.96.21-7.06,1.82-9.74,8.78-13.78,3.3-1.89,4.17-3.7,4.17-6.38,0-2.97-2.5-5.4-6.35-5.4-4.1,0-6.81,2.29-7.39,6.05-.14.91-.96,1.57-1.88,1.57h-6.26c-1.12,0-2.03-.96-1.91-2.07.94-9.2,8.21-14.46,17.77-14.46s16.46,6.6,16.46,14.4c0,5.98-2.25,9.54-9.07,13.31-3.13,1.74-3.9,3.58-4.06,6.92-.05,1.02-.89,1.82-1.91,1.82h-6.44Z"/><path class="cls-1" d="m42.33,57.31c2.83,0,5,2.17,5,5s-2.17,5-5,5-5-2.17-5-5,2.17-5,5-5Z"/></g></svg>