<?xml version="1.0" encoding="UTF-8"?><svg id="Camada_2" xmlns="http://www.w3.org/2000/svg" xmlns:xlink="http://www.w3.org/1999/xlink" viewBox="0 0 85 85"><defs><style>.cls-1{fill:#fff;}.cls-2{fill:url(#Gradiente_sem_nome_36);}.cls-3{fill:url(#Gradiente_sem_nome_36-2);}</style><linearGradient id="Gradiente_sem_nome_36" x1="0" y1="42.5" x2="85" y2="42.5" gradientUnits="userSpaceOnUse"><stop offset="0" stop-color="#0c486d"/><stop offset="1" stop-color="#80c7b6"/></linearGradient><linearGradient id="Gradiente_sem_nome_36-2" x1="49.06" y1="42.49" x2="36.88" y2="42.93" xlink:href="#Gradiente_sem_nome_36"/></defs><g id="Camada_1-2"><g id="Elipse_21"><circle class="cls-1" cx="42.5" cy="42.5" r="42.5"/><path class="cls-2" d="m42.5,3c21.78,0,39.5,17.72,39.5,39.5s-17.72,39.5-39.5,39.5S3,64.28,3,42.5,20.72,3,42.5,3M42.5,0C19.03,0,0,19.03,0,42.5s19.03,42.5,42.5,42.5,42.5-19.03,42.5-42.5S65.97,0,42.5,0h0Z"/></g><path id="Caminho_27" class="cls-3" d="m42.69,18.04h0c3.2,0,5.76,2.64,5.68,5.83l-1.75,29.39c-.05.9-.79,1.59-1.69,1.59h-4.47c-.9,0-1.64-.7-1.69-1.59l-1.75-29.39c-.09-3.2,2.48-5.83,5.68-5.83Zm4.9,44.37c0,2.76-2.24,5-5,5s-5-2.24-5-5,2.24-5,5-5,5,2.24,5,5Z"/></g></svg>