<?xml version="1.0" encoding="UTF-8"?><svg id="Camada_2" xmlns="http://www.w3.org/2000/svg" xmlns:xlink="http://www.w3.org/1999/xlink" viewBox="0 0 85 85"><defs><style>.cls-1{fill:#fff;}.cls-2{fill:url(#Gradiente_sem_nome_36);}.cls-3{fill:url(#Gradiente_sem_nome_36-2);}</style><linearGradient id="Gradiente_sem_nome_36" x1="0" y1="42.5" x2="85" y2="42.5" gradientUnits="userSpaceOnUse"><stop offset="0" stop-color="#0c486d"/><stop offset="1" stop-color="#80c7b6"/></linearGradient><linearGradient id="Gradiente_sem_nome_36-2" x1="25.41" y1="39.66" x2="58.93" y2="39.66" xlink:href="#Gradiente_sem_nome_36"/></defs><g id="Camada_1-2"><g id="Elipse_21"><circle class="cls-1" cx="42.5" cy="42.5" r="42.5"/><path class="cls-2" d="m42.5,3c21.78,0,39.5,17.72,39.5,39.5s-17.72,39.5-39.5,39.5S3,64.28,3,42.5,20.72,3,42.5,3M42.5,0C19.03,0,0,19.03,0,42.5s19.03,42.5,42.5,42.5,42.5-19.03,42.5-42.5S65.97,0,42.5,0h0Z"/></g><path id="Grupo_110" class="cls-3" d="m42.76,69.67c-1.41-.17-2.76-.67-3.94-1.46-.51-.31-.98-.67-1.42-1.08h10.71c-.43.41-.91.77-1.42,1.08-1.18.79-2.53,1.29-3.94,1.46Zm6.06-3.38h-12.11c-.17-.25-.27-.54-.28-.85v-.84h12.68v.84c-.02.3-.11.59-.28.85h0Zm.28-2.54h-12.68v-1.69h12.68v1.69h0Zm0-2.54h-12.68v-1.69h12.68v1.69Zm0-1.75h0v-.78h-5.07v-5.39l3.34-6.67h0c.03-.06.05-.12.05-.19,0-.23-.19-.42-.42-.42-.16,0-.3.09-.37.24h0l-3.85,6-3.85-6.01h0c-.07-.14-.21-.23-.37-.24-.23,0-.42.19-.42.42,0,.07.02.13.05.19h0l3.34,6.67v5.39h-5.07v.78c0-.11-.01-.22-.02-.36-.18-1.89-1.51-4.08-3.06-6.63-2.21-3.63-4.95-8.16-4.95-13.02,0-7.11,6.45-12.89,14.37-12.89s14.37,5.78,14.37,12.89c0,4.87-2.74,9.39-4.95,13.03-1.54,2.54-2.88,4.74-3.06,6.63-.01.12-.02.24-.02.36h0Zm-4.78-38.39v-9.92c0-.83-.67-1.5-1.5-1.5s-1.5.67-1.5,1.5v9.92c0,.83.67,1.5,1.5,1.5s1.5-.67,1.5-1.5Zm-8.28,3.05c.56-.61.52-1.56-.09-2.12l-8.03-7.37c-.61-.56-1.56-.52-2.12.09-.56.61-.52,1.56.09,2.12l8.03,7.37c.29.26.65.4,1.01.4.41,0,.81-.16,1.11-.49Zm14.37.09l8.03-7.37c.61-.56.65-1.51.09-2.12-.56-.61-1.51-.65-2.12-.09l-8.03,7.37c-.61.56-.65,1.51-.09,2.12.3.32.7.49,1.11.49.36,0,.73-.13,1.01-.4Z"/></g></svg>