<?xml version="1.0" encoding="UTF-8"?><svg id="Camada_2" xmlns="http://www.w3.org/2000/svg" xmlns:xlink="http://www.w3.org/1999/xlink" viewBox="0 0 85 85"><defs><style>.cls-1{fill:#fff;}.cls-2{fill:url(#Gradiente_sem_nome_36);}.cls-3{fill:url(#Gradiente_sem_nome_36-2);}</style><linearGradient id="Gradiente_sem_nome_36" x1="0" y1="42.5" x2="85" y2="42.5" gradientUnits="userSpaceOnUse"><stop offset="0" stop-color="#0c486d"/><stop offset="1" stop-color="#80c7b6"/></linearGradient><linearGradient id="Gradiente_sem_nome_36-2" x1="28.2" y1="44.77" x2="57.06" y2="44.77" xlink:href="#Gradiente_sem_nome_36"/></defs><g id="Camada_1-2"><g id="Elipse_21"><circle class="cls-1" cx="42.5" cy="42.5" r="42.5"/><path class="cls-2" d="m42.5,3c21.78,0,39.5,17.72,39.5,39.5s-17.72,39.5-39.5,39.5S3,64.28,3,42.5,20.72,3,42.5,3M42.5,0C19.03,0,0,19.03,0,42.5s19.03,42.5,42.5,42.5,42.5-19.03,42.5-42.5S65.97,0,42.5,0h0Z"/></g><path class="cls-3" d="m54.66,66.44l-10.99-15.24c-.54-.75-1.55-.75-2.1,0l-10.99,15.24c-.8,1.11-2.4.47-2.4-.96V24.04c0-.84.6-1.52,1.35-1.52h26.16c.75,0,1.35.68,1.35,1.52v41.44c0,1.43-1.6,2.07-2.4.96Z"/></g></svg>