<?xml version="1.0" encoding="UTF-8"?><svg id="Camada_2" xmlns="http://www.w3.org/2000/svg" xmlns:xlink="http://www.w3.org/1999/xlink" viewBox="0 0 85 85"><defs><style>.cls-1{fill:#fff;}.cls-2{fill:url(#Gradiente_sem_nome_36);}.cls-3{fill:url(#Gradiente_sem_nome_36-3);}.cls-4{fill:url(#Gradiente_sem_nome_36-2);}</style><linearGradient id="Gradiente_sem_nome_36" x1="0" y1="42.5" x2="85" y2="42.5" gradientUnits="userSpaceOnUse"><stop offset="0" stop-color="#0c486d"/><stop offset="1" stop-color="#80c7b6"/></linearGradient><linearGradient id="Gradiente_sem_nome_36-2" x1="19.09" y1="54.69" x2="65.48" y2="54.69" xlink:href="#Gradiente_sem_nome_36"/><linearGradient id="Gradiente_sem_nome_36-3" x1="31.56" y1="38.33" x2="53.01" y2="38.33" xlink:href="#Gradiente_sem_nome_36"/></defs><g id="Camada_1-2"><g id="Elipse_21"><circle class="cls-1" cx="42.5" cy="42.5" r="42.5"/><path class="cls-2" d="m42.5,3c21.78,0,39.5,17.72,39.5,39.5s-17.72,39.5-39.5,39.5S3,64.28,3,42.5,20.72,3,42.5,3m0-3C19.03,0,0,19.03,0,42.5s19.03,42.5,42.5,42.5,42.5-19.03,42.5-42.5S65.97,0,42.5,0h0Z"/></g><g id="download-2"><g id="Caminho_404"><path class="cls-4" d="m65.48,49.14v6.93c0,3.62-2.94,6.56-6.56,6.56H25.65c-3.62,0-6.56-2.95-6.56-6.56v-6.93c0-1.33,1.08-2.4,2.4-2.4s2.4,1.08,2.4,2.4v6.93c0,.97.79,1.75,1.75,1.75h33.27c.97,0,1.75-.79,1.75-1.75v-6.93c0-1.33,1.08-2.4,2.4-2.4s2.4,1.08,2.4,2.4Z"/></g><g id="Caminho_405"><path class="cls-3" d="m52.3,45.57l-8.43,8.42c-.47.4-1.04.6-1.6.6-.62,0-1.22-.24-1.69-.7l-8.31-8.32c-.95-.96-.94-2.49,0-3.41.95-.93,2.47-.93,3.4.02l4.21,4.21v-21.92c0-1.33,1.08-2.4,2.4-2.4s2.4,1.08,2.4,2.4v21.92l4.21-4.22c.94-.93,2.47-.93,3.4,0,.94.94.93,2.47,0,3.4Z"/></g></g></g></svg>