<?xml version="1.0" encoding="UTF-8"?><svg id="Camada_2" xmlns="http://www.w3.org/2000/svg" xmlns:xlink="http://www.w3.org/1999/xlink" viewBox="0 0 85 85"><defs><style>.cls-1{fill:#fff;}.cls-2{fill:url(#Gradiente_sem_nome_36);}.cls-3{fill:url(#Gradiente_sem_nome_36-2);}</style><linearGradient id="Gradiente_sem_nome_36" x1="0" y1="42.5" x2="85" y2="42.5" gradientUnits="userSpaceOnUse"><stop offset="0" stop-color="#0c486d"/><stop offset="1" stop-color="#80c7b6"/></linearGradient><linearGradient id="Gradiente_sem_nome_36-2" x1="19.46" y1="42.5" x2="65.75" y2="42.5" xlink:href="#Gradiente_sem_nome_36"/></defs><g id="Camada_1-2"><g id="Elipse_21"><circle class="cls-1" cx="42.5" cy="42.5" r="42.5"/><path class="cls-2" d="m42.5,3c21.78,0,39.5,17.72,39.5,39.5s-17.72,39.5-39.5,39.5S3,64.28,3,42.5,20.72,3,42.5,3m0-3C19.03,0,0,19.03,0,42.5s19.03,42.5,42.5,42.5,42.5-19.03,42.5-42.5S65.97,0,42.5,0h0Z"/></g><path id="Grupo_385" class="cls-3" d="m48.2,54.45c-9.68,0-17.55-7.87-17.55-17.55s7.87-17.55,17.55-17.55,17.55,7.87,17.55,17.55-7.87,17.55-17.55,17.55Zm0-30.34c-7.05,0-12.79,5.74-12.79,12.79s5.74,12.79,12.79,12.79,12.79-5.74,12.79-12.79-5.74-12.79-12.79-12.79Zm-15.74,23.82l-12.02,12.02c-1.3,1.3-1.3,3.41,0,4.71h0c1.3,1.3,3.41,1.3,4.71,0l12.02-12.02h0l-4.71-4.71h0Zm27.27-10.24c0-6.79-5.53-12.32-12.32-12.32-.88,0-1.59.71-1.59,1.59s.71,1.59,1.59,1.59c5.04,0,9.14,4.1,9.14,9.14,0,.88.71,1.59,1.59,1.59s1.59-.71,1.59-1.59Z"/></g></svg>