<?xml version="1.0" encoding="UTF-8"?><svg id="Camada_2" xmlns="http://www.w3.org/2000/svg" xmlns:xlink="http://www.w3.org/1999/xlink" viewBox="0 0 85 85"><defs><style>.cls-1{fill:#fff;}.cls-2{fill:url(#Gradiente_sem_nome_36);}.cls-3{fill:url(#Gradiente_sem_nome_36-2);}</style><linearGradient id="Gradiente_sem_nome_36" x1="0" y1="42.5" x2="85" y2="42.5" gradientUnits="userSpaceOnUse"><stop offset="0" stop-color="#0c486d"/><stop offset="1" stop-color="#80c7b6"/></linearGradient><linearGradient id="Gradiente_sem_nome_36-2" x1="13.29" y1="42.16" x2="71.97" y2="42.16" xlink:href="#Gradiente_sem_nome_36"/></defs><g id="Camada_1-2"><g id="Elipse_21"><circle class="cls-1" cx="42.5" cy="42.5" r="42.5"/><path class="cls-2" d="m42.5,3c21.78,0,39.5,17.72,39.5,39.5s-17.72,39.5-39.5,39.5S3,64.28,3,42.5,20.72,3,42.5,3M42.5,0C19.03,0,0,19.03,0,42.5s19.03,42.5,42.5,42.5,42.5-19.03,42.5-42.5S65.97,0,42.5,0h0Z"/></g><path class="cls-3" d="m70.36,38.83h-1.68c-1.44-4.95-6.02-8.59-11.43-8.59s-9.7,3.4-11.3,8.1c-2.19-.53-4.47-.54-6.66-.02-1.6-4.69-6.05-8.09-11.28-8.09s-10,3.64-11.45,8.59h-1.66c-.89,0-1.62.72-1.62,1.61s.73,1.62,1.62,1.62h1.19v.11c0,6.57,5.34,11.92,11.92,11.92s11.92-5.35,11.92-11.92c0-.1,0-.2,0-.29,1.77-.46,3.64-.44,5.41.04,0,.09,0,.17,0,.26,0,6.57,5.34,11.92,11.92,11.92s11.91-5.35,11.91-11.92v-.11h1.2c.89,0,1.61-.72,1.61-1.62s-.72-1.61-1.61-1.61Zm-42.34,11.65c-4.59,0-8.32-3.74-8.32-8.32s3.74-8.32,8.32-8.32,8.32,3.74,8.32,8.32-3.73,8.32-8.32,8.32Zm29.23,0c-4.59,0-8.32-3.74-8.32-8.32s3.74-8.32,8.32-8.32,8.32,3.74,8.32,8.32-3.73,8.32-8.32,8.32Z"/></g></svg>