<svg xmlns="http://www.w3.org/2000/svg" xmlns:xlink="http://www.w3.org/1999/xlink" width="132" height="129" viewBox="0 0 132 129">
  <defs>
    <linearGradient id="linear-gradient" x1="1.304" y1="0.72" x2="0.104" y2="0.764" gradientUnits="objectBoundingBox">
      <stop offset="0" stop-color="#0b3b4b"/>
      <stop offset="1" stop-color="#50d7e2"/>
    </linearGradient>
  </defs>
  <g id="Grupo_302" data-name="Grupo 302" transform="translate(-2211 -345)">
    <circle id="Elipse_19" data-name="Elipse 19" cx="62.5" cy="62.5" r="62.5" transform="translate(2218 349)" fill="url(#linear-gradient)"/>
    <g id="Elipse_20" data-name="Elipse 20" transform="translate(2211 345)" fill="none" stroke="#1e8bb0" stroke-width="3">
      <circle cx="62.5" cy="62.5" r="62.5" stroke="none"/>
      <circle cx="62.5" cy="62.5" r="61" fill="none"/>
    </g>
    <path id="Caminho_43" data-name="Caminho 43" d="M835.507,96.732a1.557,1.557,0,0,0-.2-.014c-.214,0-.342.017-.492.361a8.355,8.355,0,0,0-.459,2.477,17.755,17.755,0,0,1-.271,2.072,8.161,8.161,0,0,1-7.57,6.283H826.4a9.723,9.723,0,0,1-6.515-3.049c-.453-.425-3.108-3.075-3.046-6.63a8.158,8.158,0,0,1,6.28-7.568,17.273,17.273,0,0,1,2.08-.273,8.216,8.216,0,0,0,2.477-.462c.219-.1.415-.182.346-.677L816.26,77.489,828.348,65.4a.414.414,0,0,0-.319-.487,7.908,7.908,0,0,0-2.383-.445,16.666,16.666,0,0,1-2.018-.264,7.943,7.943,0,0,1-6.123-7.372,10.26,10.26,0,0,1,9.31-9.424h.111a7.943,7.943,0,0,1,7.373,6.122,17.068,17.068,0,0,1,.265,2.007,7.984,7.984,0,0,0,.448,2.394c.133.3.228.316.431.316h.058l12.375-12.377,12.473,12.475.092.437a3.339,3.339,0,0,1-1.957,4,9.913,9.913,0,0,1-3.172.654,13.741,13.741,0,0,0-1.567.2,4.635,4.635,0,0,0-3.487,4.183,6.1,6.1,0,0,0,1.9,3.955l.11.11a6.153,6.153,0,0,0,3.9,1.9,4.65,4.65,0,0,0,4.24-3.484,13.827,13.827,0,0,0,.2-1.583,9.87,9.87,0,0,1,.647-3.157,3.264,3.264,0,0,1,3.089-2.059,4.545,4.545,0,0,1,.923.1l.437.092L879,77,865.225,90.776l-.481.076a4.315,4.315,0,0,1-.67.055,3.209,3.209,0,0,1-3.045-2.034,9.716,9.716,0,0,1-.638-3.1,13.2,13.2,0,0,0-.194-1.525,4.482,4.482,0,0,0-4.045-3.372h0a5.984,5.984,0,0,0-3.825,1.841l-.055.061-.061.055a5.894,5.894,0,0,0-1.839,3.822,4.484,4.484,0,0,0,3.366,4.044,13.584,13.584,0,0,0,1.529.2,9.718,9.718,0,0,1,3.106.644,3.264,3.264,0,0,1,1.972,3.711l-.077.48-12.881,12.881Z" transform="translate(1432.87 330.258)" fill="#fff"/>
  </g>
</svg>
